<svg width="60" height="64" viewBox="0 0 60 64" fill="none" xmlns="http://www.w3.org/2000/svg">
<rect width="60" height="64" rx="8" fill="white"/>
<path fill-rule="evenodd" clip-rule="evenodd" d="M15 32C15 30.6193 16.1193 29.5 17.5 29.5H42.5C43.8808 29.5 45 30.6193 45 32C45 33.3808 43.8808 34.5 42.5 34.5H17.5C16.1193 34.5 15 33.3808 15 32Z" fill="#A216FF"/>
<path fill-rule="evenodd" clip-rule="evenodd" d="M17.5 12C18.8807 12 20 13.1193 20 14.5V49.5C20 50.8808 18.8807 52 17.5 52C16.1193 52 15 50.8808 15 49.5V14.5C15 13.1193 16.1193 12 17.5 12Z" fill="#A216FF"/>
<path fill-rule="evenodd" clip-rule="evenodd" d="M42.5 12C43.8808 12 45 13.1193 45 14.5V49.5C45 50.8808 43.8808 52 42.5 52C41.1193 52 40 50.8808 40 49.5V14.5C40 13.1193 41.1193 12 42.5 12Z" fill="#A216FF"/>
<path fill-rule="evenodd" clip-rule="evenodd" d="M35 49.5C35 48.1193 36.1193 47 37.5 47H47.5C48.8808 47 50 48.1193 50 49.5C50 50.8808 48.8808 52 47.5 52H37.5C36.1193 52 35 50.8808 35 49.5Z" fill="#A216FF"/>
<path fill-rule="evenodd" clip-rule="evenodd" d="M35 14.5C35 13.1193 36.1193 12 37.5 12H47.5C48.8808 12 50 13.1193 50 14.5C50 15.8807 48.8808 17 47.5 17H37.5C36.1193 17 35 15.8807 35 14.5Z" fill="#A216FF"/>
<path fill-rule="evenodd" clip-rule="evenodd" d="M10 49.5C10 48.1193 11.1193 47 12.5 47H22.5C23.8807 47 25 48.1193 25 49.5C25 50.8808 23.8807 52 22.5 52H12.5C11.1193 52 10 50.8808 10 49.5Z" fill="#A216FF"/>
<path fill-rule="evenodd" clip-rule="evenodd" d="M10 14.5C10 13.1193 11.1193 12 12.5 12H22.5C23.8807 12 25 13.1193 25 14.5C25 15.8807 23.8807 17 22.5 17H12.5C11.1193 17 10 15.8807 10 14.5Z" fill="#A216FF"/>
</svg>
