<svg width="100" height="100" viewBox="0 0 100 100" fill="none" xmlns="http://www.w3.org/2000/svg">
<path d="M30.2782 45.1875H11.9718C8.67884 45.1875 6 42.5087 6 39.2157V20.9093C6 17.6163 8.67884 14.9375 11.9718 14.9375H30.2782C33.5712 14.9375 36.25 17.6163 36.25 20.9093V39.2157C36.25 42.5087 33.5712 45.1875 30.2782 45.1875ZM11.9718 20.4375C11.7116 20.4375 11.5 20.6491 11.5 20.9093V39.2157C11.5 39.4759 11.7116 39.6875 11.9718 39.6875H30.2782C30.5384 39.6875 30.75 39.4759 30.75 39.2157V20.9093C30.75 20.6491 30.5384 20.4375 30.2782 20.4375H11.9718Z" fill="#A216FF"/>
<path d="M30.2782 85.0625H11.9718C8.67884 85.0625 6 82.3837 6 79.0907V60.7843C6 57.4913 8.67884 54.8125 11.9718 54.8125H30.2782C33.5712 54.8125 36.25 57.4913 36.25 60.7843V79.0907C36.25 82.3837 33.5712 85.0625 30.2782 85.0625ZM11.9718 60.3125C11.7116 60.3125 11.5 60.5241 11.5 60.7843V79.0907C11.5 79.3509 11.7116 79.5625 11.9718 79.5625H30.2782C30.5384 79.5625 30.75 79.3509 30.75 79.0907V60.7843C30.75 60.5241 30.5384 60.3125 30.2782 60.3125H11.9718Z" fill="#A216FF"/>
<path d="M91.25 28.6875H47.25C45.7313 28.6875 44.5 27.4562 44.5 25.9375C44.5 24.4188 45.7313 23.1875 47.25 23.1875H91.25C92.7687 23.1875 94 24.4188 94 25.9375C94 27.4562 92.7687 28.6875 91.25 28.6875Z" fill="#A216FF"/>
<path d="M76.125 39H47.25C45.7313 39 44.5 37.7687 44.5 36.25C44.5 34.7313 45.7313 33.5 47.25 33.5H76.125C77.6437 33.5 78.875 34.7313 78.875 36.25C78.875 37.7687 77.6437 39 76.125 39Z" fill="#A216FF"/>
<path d="M91.25 67.875H47.25C45.7313 67.875 44.5 66.6437 44.5 65.125C44.5 63.6063 45.7313 62.375 47.25 62.375H91.25C92.7687 62.375 94 63.6063 94 65.125C94 66.6437 92.7687 67.875 91.25 67.875Z" fill="#A216FF"/>
<path d="M76.125 78.875H47.25C45.7313 78.875 44.5 77.6437 44.5 76.125C44.5 74.6063 45.7313 73.375 47.25 73.375H76.125C77.6437 73.375 78.875 74.6063 78.875 76.125C78.875 77.6437 77.6437 78.875 76.125 78.875Z" fill="#A216FF"/>
</svg>
