<svg width="200" height="200" viewBox="0 0 200 200" fill="none" xmlns="http://www.w3.org/2000/svg">
<path d="M11.1113 59.241C11.1113 89.7271 17.6441 96.2598 48.1305 96.2598C78.6169 96.2598 85.1497 89.7271 85.1497 59.241C85.1497 28.755 78.6169 22.2222 48.1305 22.2222C17.6441 22.2222 11.1113 28.755 11.1113 59.241Z" fill="#A216FF"/>
<path d="M11.1113 148.729C11.1113 179.215 17.6414 185.748 48.1148 185.748C78.5882 185.748 85.1497 179.247 85.1497 148.729C85.1497 118.243 78.6197 111.711 48.1148 111.711C17.6098 111.711 11.1113 118.243 11.1113 148.729Z" fill="#A216FF"/>
<path d="M100.597 43.3348C100.597 60.7215 104.322 64.4473 121.709 64.4473C139.096 64.4473 142.822 60.7215 142.822 43.3348C142.822 25.948 139.096 22.2223 121.709 22.2223C104.322 22.2043 100.597 25.93 100.597 43.3348Z" fill="#A216FF"/>
<rect x="150.504" y="33.7375" width="23.0321" height="7.67728" rx="3.83864" fill="#A216FF"/>
<rect x="150.504" y="45.2542" width="38.3869" height="7.67728" rx="3.83864" fill="#A216FF"/>
<path d="M100.597 103.985C100.597 121.372 104.322 125.098 121.709 125.098C139.096 125.098 142.822 121.372 142.822 103.985C142.822 86.5986 139.096 82.8729 121.709 82.8729C104.322 82.8549 100.597 86.5806 100.597 103.985Z" fill="#A216FF"/>
<rect x="150.504" y="94.3888" width="23.0321" height="7.67728" rx="3.83864" fill="#A216FF"/>
<rect x="150.504" y="105.905" width="38.3869" height="7.67728" rx="3.83864" fill="#A216FF"/>
<path d="M100.597 164.636C100.597 182.023 104.322 185.748 121.709 185.748C139.096 185.748 142.822 182.023 142.822 164.636C142.822 147.249 139.096 143.524 121.709 143.524C104.322 143.506 100.597 147.231 100.597 164.636Z" fill="#A216FF"/>
<rect x="150.504" y="155.039" width="23.0321" height="7.67728" rx="3.83864" fill="#A216FF"/>
<rect x="150.504" y="166.555" width="38.3869" height="7.67728" rx="3.83864" fill="#A216FF"/>
</svg>
