<svg width="18" height="18" viewBox="0 0 18 18" fill="none" xmlns="http://www.w3.org/2000/svg">
<rect width="18" height="18" rx="4" fill="white"/>
<path d="M2.77734 6.14686C2.77734 8.28088 3.23464 8.73817 5.36869 8.73817C7.50273 8.73817 7.96003 8.28088 7.96003 6.14686C7.96003 4.01283 7.50273 3.55554 5.36869 3.55554C3.23464 3.55554 2.77734 4.01283 2.77734 6.14686Z" fill="#A216FF"/>
<path d="M2.77734 12.4111C2.77734 14.5451 3.23445 15.0024 5.36758 15.0024C7.50072 15.0024 7.96003 14.5473 7.96003 12.4111C7.96003 10.2771 7.50293 9.81976 5.36758 9.81976C3.23224 9.81976 2.77734 10.2771 2.77734 12.4111Z" fill="#A216FF"/>
<path d="M9.0415 5.03342C9.0415 6.25049 9.30231 6.51129 10.5194 6.51129C11.7365 6.51129 11.9973 6.25049 11.9973 5.03342C11.9973 3.81635 11.7365 3.55555 10.5194 3.55555C9.30231 3.55429 9.0415 3.81509 9.0415 5.03342Z" fill="#A216FF"/>
<rect x="12.5352" y="4.36157" width="1.61225" height="0.53741" rx="0.268705" fill="#A216FF"/>
<rect x="12.5352" y="5.16785" width="2.68708" height="0.53741" rx="0.268705" fill="#A216FF"/>
<path d="M9.0415 9.27897C9.0415 10.496 9.30231 10.7568 10.5194 10.7568C11.7365 10.7568 11.9973 10.496 11.9973 9.27897C11.9973 8.06189 11.7365 7.80109 10.5194 7.80109C9.30231 7.79983 9.0415 8.06063 9.0415 9.27897Z" fill="#A216FF"/>
<rect x="12.5352" y="8.60724" width="1.61225" height="0.53741" rx="0.268705" fill="#A216FF"/>
<rect x="12.5352" y="9.41333" width="2.68708" height="0.53741" rx="0.268705" fill="#A216FF"/>
<path d="M9.0415 13.5245C9.0415 14.7416 9.30231 15.0024 10.5194 15.0024C11.7365 15.0024 11.9973 14.7416 11.9973 13.5245C11.9973 12.3074 11.7365 12.0466 10.5194 12.0466C9.30231 12.0454 9.0415 12.3062 9.0415 13.5245Z" fill="#A216FF"/>
<rect x="12.5352" y="12.8528" width="1.61225" height="0.53741" rx="0.268705" fill="#A216FF"/>
<rect x="12.5352" y="13.6589" width="2.68708" height="0.53741" rx="0.268705" fill="#A216FF"/>
</svg>
