<svg width="60" height="64" viewBox="0 0 60 64" fill="none" xmlns="http://www.w3.org/2000/svg">
<g clip-path="url(#clip0_339_36)">
<rect width="60" height="64" rx="8" fill="white"/>
<path d="M1 30C1 29.4477 1.37453 29 1.83654 29H20.2404C20.7024 29 21.0769 29.4477 21.0769 30V30C21.0769 30.5523 20.7024 31 20.2404 31H1.83654C1.37453 31 1 30.5523 1 30V30Z" fill="#A216FF"/>
<path d="M28.2705 29.8293C28.2705 29.3242 28.8848 28.9147 29.6425 28.9147H59.8258C60.5835 28.9147 61.1977 29.3242 61.1977 29.8293V29.8293C61.1977 30.3344 60.5835 30.7439 59.8258 30.7439H29.6425C28.8848 30.7439 28.2705 30.3344 28.2705 29.8293V29.8293Z" fill="#A216FF"/>
<path d="M24.6126 31.6584C23.6023 31.6584 22.7833 30.8395 22.7833 29.8292C22.7833 28.819 23.6023 28 24.6126 28C25.6229 28 26.4419 28.819 26.4419 29.8292C26.4419 30.8395 25.6229 31.6584 24.6126 31.6584Z" fill="#A216FF"/>
</g>
<defs>
<clipPath id="clip0_339_36">
<rect width="60" height="64" rx="8" fill="white"/>
</clipPath>
</defs>
</svg>
