<svg width="60" height="65" viewBox="0 0 60 65" fill="none" xmlns="http://www.w3.org/2000/svg">
<rect width="60" height="65" rx="8" fill="white"/>
<path d="M45.3333 20H15.0417C9.5 20 5 24.5104 5 30.0417V34.9583C5 40.5 9.51042 45 15.0417 45H45.3229C50.8646 45 55.3646 40.4896 55.3646 34.9583V30.0417C55.375 24.5104 50.8646 20 45.3333 20ZM45.3333 39.6771H15.0417C9.72917 39.6771 5.41667 35.3542 5.41667 30.0521C5.41667 24.7396 9.73958 20.4271 15.0417 20.4271H45.3229C50.6354 20.4271 54.9479 24.75 54.9479 30.0521C54.9583 35.3542 50.6354 39.6771 45.3333 39.6771Z" fill="#A216FF"/>
</svg>
