<svg width="100" height="100" viewBox="0 0 100 100" fill="none" xmlns="http://www.w3.org/2000/svg">
<path d="M86.2656 16.4844H34.3594C30.0946 16.4844 26.625 19.954 26.625 24.2188C26.625 28.4835 30.0946 31.9531 34.3594 31.9531H86.2656C90.5304 31.9531 94 28.4835 94 24.2188C94 19.954 90.5304 16.4844 86.2656 16.4844ZM86.2656 26.7969H34.3594C32.9378 26.7969 31.7812 25.6403 31.7812 24.2188C31.7812 22.7972 32.9378 21.6406 34.3594 21.6406H86.2656C87.6872 21.6406 88.8438 22.7972 88.8438 24.2188C88.8438 25.6403 87.6872 26.7969 86.2656 26.7969Z" fill="#A216FF"/>
<path d="M86.2656 42.2656H34.3594C30.0946 42.2656 26.625 45.7353 26.625 50C26.625 54.2647 30.0946 57.7344 34.3594 57.7344H86.2656C90.5304 57.7344 94 54.2647 94 50C94 45.7353 90.5304 42.2656 86.2656 42.2656ZM86.2656 52.5781H34.3594C32.9378 52.5781 31.7812 51.4216 31.7812 50C31.7812 48.5784 32.9378 47.4219 34.3594 47.4219H86.2656C87.6872 47.4219 88.8438 48.5784 88.8438 50C88.8438 51.4216 87.6872 52.5781 86.2656 52.5781Z" fill="#A216FF"/>
<path d="M86.2656 68.0469H34.3594C30.0946 68.0469 26.625 71.5165 26.625 75.7812C26.625 80.046 30.0946 83.5156 34.3594 83.5156H86.2656C90.5304 83.5156 94 80.046 94 75.7812C94 71.5165 90.5304 68.0469 86.2656 68.0469ZM86.2656 78.3594H34.3594C32.9378 78.3594 31.7812 77.2028 31.7812 75.7812C31.7812 74.3597 32.9378 73.2031 34.3594 73.2031H86.2656C87.6872 73.2031 88.8438 74.3597 88.8438 75.7812C88.8438 77.2028 87.6872 78.3594 86.2656 78.3594Z" fill="#A216FF"/>
<path d="M13.7344 16.4844C9.46964 16.4844 6 19.954 6 24.2188C6 28.4835 9.46964 31.9531 13.7344 31.9531C17.9991 31.9531 21.4688 28.4835 21.4688 24.2188C21.4688 19.954 17.9991 16.4844 13.7344 16.4844ZM13.7344 26.7969C12.3128 26.7969 11.1562 25.6403 11.1562 24.2188C11.1562 22.7972 12.3128 21.6406 13.7344 21.6406C15.156 21.6406 16.3125 22.7972 16.3125 24.2188C16.3125 25.6403 15.156 26.7969 13.7344 26.7969Z" fill="#A216FF"/>
<path d="M13.7344 42.2656C9.46964 42.2656 6 45.7353 6 50C6 54.2647 9.46964 57.7344 13.7344 57.7344C17.9991 57.7344 21.4688 54.2647 21.4688 50C21.4688 45.7353 17.9991 42.2656 13.7344 42.2656ZM13.7344 52.5781C12.3128 52.5781 11.1562 51.4216 11.1562 50C11.1562 48.5784 12.3128 47.4219 13.7344 47.4219C15.156 47.4219 16.3125 48.5784 16.3125 50C16.3125 51.4216 15.156 52.5781 13.7344 52.5781Z" fill="#A216FF"/>
<path d="M13.7344 68.0469C9.46964 68.0469 6 71.5165 6 75.7812C6 80.046 9.46964 83.5156 13.7344 83.5156C17.9991 83.5156 21.4688 80.046 21.4688 75.7812C21.4688 71.5165 17.9991 68.0469 13.7344 68.0469ZM13.7344 78.3594C12.3128 78.3594 11.1562 77.2028 11.1562 75.7812C11.1562 74.3597 12.3128 73.2031 13.7344 73.2031C15.156 73.2031 16.3125 74.3597 16.3125 75.7812C16.3125 77.2028 15.156 78.3594 13.7344 78.3594Z" fill="#A216FF"/>
</svg>
