<svg width="60" height="64" viewBox="0 0 60 64" fill="none" xmlns="http://www.w3.org/2000/svg">
<rect width="60" height="64" rx="8" fill="white"/>
<g clip-path="url(#clip0_325_4910)">
<path d="M32.6728 40.1818C32.2639 40.2199 31.8533 40.1277 31.5001 39.9181C31.2419 39.6531 31.1182 39.2853 31.1637 38.9181C31.1733 38.6125 31.2097 38.3083 31.2728 38.0091C31.3338 37.6658 31.4126 37.326 31.5091 36.9909L32.5819 33.2999C32.6925 32.9356 32.7656 32.561 32.8001 32.1817C32.8001 31.7727 32.8546 31.4908 32.8546 31.3272C32.8774 30.5981 32.5661 29.8984 32.0091 29.4272C31.324 28.9013 30.4709 28.6428 29.6091 28.6999C28.9915 28.7092 28.3787 28.8103 27.7909 28.9999C27.1485 29.1999 26.4727 29.4393 25.7637 29.7181L25.4546 30.9181C25.6637 30.8454 25.9183 30.7636 26.2091 30.6727C26.4866 30.5905 26.7743 30.5476 27.0637 30.5454C27.4696 30.5014 27.8782 30.6011 28.2182 30.8272C28.4491 31.1028 28.5575 31.4607 28.5182 31.8181C28.5172 32.1239 28.4837 32.4286 28.4182 32.7272C28.3545 33.0454 28.2727 33.3817 28.1727 33.7363L27.0909 37.4453C27.0037 37.7901 26.934 38.139 26.8819 38.4908C26.8394 38.792 26.8181 39.0957 26.8182 39.3999C26.8137 40.134 27.1494 40.8288 27.7272 41.2817C28.4229 41.8158 29.2882 42.0806 30.1636 42.0271C30.78 42.0398 31.3943 41.9507 31.9818 41.7635C32.4969 41.5877 33.1848 41.3362 34.0455 41.0089L34.3364 39.8635C34.1033 39.9602 33.8632 40.0392 33.6182 40.0998C33.3083 40.1706 32.9902 40.1981 32.6728 40.1818Z" fill="#A216FF"/>
<path d="M33.8092 22.6818C33.3145 22.2274 32.6626 21.9829 31.991 22C31.3199 21.9848 30.6686 22.229 30.1728 22.6818C29.2641 23.4654 29.1626 24.8373 29.9463 25.7462C30.0161 25.8272 30.0918 25.9029 30.1728 25.9727C31.2081 26.8987 32.7739 26.8987 33.8092 25.9727C34.7179 25.1814 34.8131 23.8033 34.0218 22.8945C33.956 22.8188 33.8849 22.7477 33.8092 22.6818Z" fill="#A216FF"/>
<path d="M30 12C18.9543 12 10 20.9543 10 32C10 43.0457 18.9543 52 30 52C41.0457 52 50 43.0457 50 32C50 20.9543 41.0457 12 30 12ZM30 50.1818C19.9584 50.1818 11.8182 42.0416 11.8182 32C11.8182 21.9584 19.9584 13.8182 30 13.8182C40.0416 13.8182 48.1818 21.9584 48.1818 32C48.1818 42.0416 40.0416 50.1818 30 50.1818Z" fill="#A216FF"/>
</g>
<defs>
<clipPath id="clip0_325_4910">
<rect width="40" height="40" fill="white" transform="translate(10 12)"/>
</clipPath>
</defs>
</svg>
