<svg width="60" height="64" viewBox="0 0 60 64" fill="none" xmlns="http://www.w3.org/2000/svg">
<rect width="60" height="64" rx="8" fill="white"/>
<path d="M45.6566 41.5618C45.5433 41.4817 41.1036 31.8322 40.8524 31.4031C40.9251 31.1739 40.9377 30.9299 40.8889 30.6945C40.8401 30.4591 40.7315 30.2403 40.5737 30.059C38.831 28.517 34.5831 32.5015 32.9027 34.0266C32.1627 34.8125 27.0358 39.5365 28.6132 41.5189C28.7851 41.6807 28.9956 41.7959 29.2246 41.8534C29.4536 41.911 29.6935 41.909 29.9215 41.8478L36.5273 45.3222L33.3245 48.3963C33.1516 48.5577 33.0131 48.7523 32.9173 48.9685C32.8215 49.1847 32.7703 49.4181 32.7669 49.6545C32.7885 50.0062 32.8875 50.3487 33.0568 50.6577C33.2261 50.9666 33.4616 51.2344 33.7463 51.4418C33.9101 51.6132 34.106 51.7507 34.323 51.8464C34.5399 51.9421 34.7735 51.9941 35.0106 51.9994C35.2476 52.0047 35.4834 51.9633 35.7043 51.8774C35.9253 51.7915 36.1273 51.663 36.2985 51.499L40.588 47.3883C43.9714 48.5414 47.2668 44.7763 45.6566 41.5618ZM29.7857 40.4323C29.7773 39.7983 31.2033 37.6604 33.8892 35.0561C36.6138 32.4655 38.7618 31.2117 39.4441 31.167C39.0611 32.2659 37.9182 33.9757 35.2977 36.5289C32.6522 39.0041 30.8849 40.1151 29.7857 40.4323Z" fill="#A216FF"/>
<path d="M33.8506 26.2118C33.7568 26.2155 33.6646 26.2376 33.5793 26.2769C33.4941 26.3162 33.4174 26.3719 33.3537 26.4409C33.29 26.5098 33.2405 26.5907 33.2081 26.6788C33.1756 26.7669 33.1609 26.8605 33.1646 26.9543L33.2739 29.726C33.2776 29.8198 33.2998 29.9119 33.3391 29.9971C33.3784 30.0824 33.4342 30.159 33.5031 30.2227C33.5721 30.2864 33.6529 30.3359 33.7409 30.3684C33.829 30.4008 33.9226 30.4156 34.0164 30.4119C34.1102 30.4082 34.2023 30.386 34.2876 30.3467C34.3728 30.3074 34.4495 30.2517 34.5132 30.1827C34.5768 30.1138 34.6263 30.033 34.6588 29.9449C34.6913 29.8568 34.7061 29.7632 34.7023 29.6694L34.5931 26.8978C34.5907 26.8036 34.5694 26.7108 34.5305 26.6249C34.4917 26.5391 34.436 26.4619 34.3668 26.3979C34.2975 26.334 34.2162 26.2845 34.1275 26.2526C34.0389 26.2206 33.9447 26.2068 33.8506 26.2118Z" fill="#A216FF"/>
<path d="M25.8253 33.985C25.6381 33.9726 25.4535 34.0342 25.3114 34.1566C25.1692 34.2791 25.0809 34.4525 25.0654 34.6394C25.05 34.8264 25.1086 35.0119 25.2287 35.1561C25.3487 35.3002 25.5207 35.3914 25.7074 35.4099L28.4716 35.6382C28.6585 35.65 28.8424 35.588 28.9841 35.4656C29.1257 35.3432 29.2137 35.1701 29.2292 34.9835C29.2446 34.797 29.1863 34.6118 29.0667 34.4678C28.9471 34.3238 28.7758 34.2324 28.5896 34.2133L25.8253 33.985Z" fill="#A216FF"/>
<path d="M30.286 32.3294C30.4181 32.4621 30.597 32.5376 30.7843 32.5398C30.9715 32.5419 31.1522 32.4706 31.2874 32.341C31.4226 32.2115 31.5016 32.0341 31.5074 31.8469C31.5132 31.6598 31.4454 31.4778 31.3185 31.3401L29.6594 29.6076C29.5281 29.4712 29.348 29.3924 29.1587 29.3886C28.9694 29.3847 28.7863 29.4561 28.6496 29.5871C28.5128 29.7181 28.4336 29.898 28.4294 30.0873C28.4251 30.2766 28.4961 30.4599 28.6268 30.5969L30.286 32.3294Z" fill="#A216FF"/>
<path d="M20.8059 36.6647C19.0003 36.667 17.2695 37.3857 15.9934 38.6631C14.7173 39.9405 14.0004 41.6721 14 43.4777C14.3731 52.5108 27.249 52.5007 27.619 43.4777C27.6182 41.671 26.9001 39.9385 25.6226 38.661C24.345 37.3835 22.6126 36.6655 20.8059 36.6647ZM22.1714 42.1552V44.9004C22.1895 45.4697 21.9816 46.023 21.5932 46.4396C21.2047 46.8561 20.6673 47.1021 20.0981 47.1238H19.4833C19.0051 47.0937 18.5562 46.8826 18.2282 46.5332C17.9001 46.1839 17.7175 45.7228 17.7175 45.2436C17.7175 44.7644 17.9001 44.3032 18.2282 43.9539C18.5562 43.6046 19.0051 43.3934 19.4833 43.3633C19.6765 43.3626 19.8625 43.4366 20.0024 43.5698C20.1423 43.7031 20.2253 43.8852 20.234 44.0782C20.2375 44.1707 20.2224 44.2629 20.1895 44.3493C20.1566 44.4358 20.1067 44.5147 20.0426 44.5814C19.9786 44.6481 19.9017 44.7013 19.8167 44.7377C19.7317 44.774 19.6402 44.7929 19.5477 44.7932C19.3226 44.7639 19.1501 44.9679 19.1473 45.2436C19.1473 45.4866 19.2974 45.6939 19.4833 45.6939H20.0981C20.2878 45.6721 20.4614 45.5767 20.5817 45.4284C20.702 45.2801 20.7594 45.0905 20.7416 44.9004V40.5395C20.7449 40.401 20.7881 40.2665 20.8658 40.1519C20.9436 40.0374 21.0526 39.9476 21.18 39.8933C21.3074 39.839 21.4477 39.8226 21.5842 39.8459C21.7207 39.8692 21.8476 39.9313 21.9498 40.0248C22.6231 40.6753 23.3397 41.2795 24.0945 41.8334C24.2002 41.8412 24.3027 41.873 24.3944 41.9262C24.486 41.9795 24.5644 42.0529 24.6235 42.1408C24.6767 42.2182 24.7141 42.3054 24.7335 42.3973C24.753 42.4892 24.7541 42.584 24.7368 42.6763C24.7195 42.7686 24.6842 42.8566 24.6329 42.9352C24.5815 43.0139 24.5152 43.0816 24.4376 43.1346C24.0873 43.3777 23.8157 43.5635 22.1714 42.1552Z" fill="#A216FF"/>
<path d="M20.8059 33.7338C22.6115 33.7334 24.3431 33.0164 25.6205 31.7404C26.8979 30.4643 27.6167 28.7334 27.619 26.9279C27.2567 17.895 14.3627 17.8901 14 26.9279C14.0019 28.7324 14.7195 30.4624 15.9955 31.7383C17.2714 33.0142 19.0014 33.7319 20.8059 33.7338ZM18.4324 26.4989H19.5405V25.2978C19.5413 24.5984 19.8194 23.9278 20.314 23.4333C20.8086 22.9387 21.4791 22.6606 22.1785 22.6598C22.917 22.6428 24.2923 23.0734 23.7943 24.0325C23.6948 24.1927 23.5362 24.3073 23.3529 24.3515C23.1696 24.3956 22.9763 24.3658 22.8148 24.2684C22.6238 24.15 22.4032 24.088 22.1785 24.0897C22.0198 24.0895 21.8626 24.1206 21.7159 24.1812C21.5693 24.2419 21.436 24.3309 21.3238 24.4431C21.2115 24.5553 21.1226 24.6886 21.0619 24.8353C21.0013 24.9819 20.9701 25.1391 20.9703 25.2978V26.4989H22.3215C22.5091 26.5019 22.6881 26.5785 22.8197 26.7122C22.9514 26.846 23.0252 27.0261 23.0252 27.2138C23.0252 27.4015 22.9514 27.5816 22.8197 27.7154C22.6881 27.8491 22.5091 27.9257 22.3215 27.9287H20.9704V30.4809C20.9707 30.575 20.9524 30.6682 20.9166 30.7552C20.8808 30.8422 20.8282 30.9213 20.7618 30.9879C20.6954 31.0545 20.6164 31.1074 20.5296 31.1434C20.4427 31.1795 20.3495 31.1981 20.2555 31.1981C20.1614 31.1981 20.0682 31.1795 19.9813 31.1434C19.8945 31.1074 19.8155 31.0545 19.7491 30.9879C19.6827 30.9213 19.6301 30.8422 19.5943 30.7552C19.5585 30.6682 19.5402 30.575 19.5405 30.4809V27.9287H18.4324C18.2448 27.9257 18.0658 27.8491 17.9342 27.7154C17.8025 27.5816 17.7287 27.4015 17.7287 27.2138C17.7287 27.0261 17.8025 26.846 17.9342 26.7122C18.0658 26.5785 18.2448 26.5019 18.4324 26.4989Z" fill="#A216FF"/>
<path d="M35.7618 25.7835C37.5938 25.7807 39.3498 25.0512 40.6445 23.7552C41.9392 22.4591 42.6669 20.7024 42.6678 18.8704C42.292 9.70475 29.2258 9.71464 28.8486 18.8705C28.8512 20.7032 29.5804 22.46 30.8763 23.7559C32.1722 25.0518 33.9291 25.781 35.7618 25.7835ZM31.9228 16.8758C31.9224 16.3878 32.1156 15.9195 32.46 15.5737C32.8044 15.2279 33.272 15.0328 33.7601 15.0314H37.7564C38.2452 15.0326 38.7137 15.2273 39.0593 15.5729C39.405 15.9186 39.5997 16.387 39.6009 16.8758V20.8721C39.5994 21.3602 39.4044 21.8278 39.0586 22.1722C38.7128 22.5167 38.2445 22.7099 37.7564 22.7095H33.7601C33.5188 22.7095 33.2798 22.6621 33.0569 22.5698C32.8339 22.4774 32.6313 22.3421 32.4607 22.1715C32.2901 22.0009 32.1548 21.7983 32.0625 21.5753C31.9702 21.3524 31.9227 21.1134 31.9228 20.8721V16.8758Z" fill="#A216FF"/>
<path d="M33.7605 21.2803H37.7569C37.8109 21.281 37.8646 21.271 37.9148 21.2509C37.965 21.2308 38.0107 21.2009 38.0492 21.163C38.0878 21.1251 38.1185 21.08 38.1395 21.0301C38.1605 20.9803 38.1714 20.9268 38.1715 20.8728V16.8765C38.1715 16.7665 38.1277 16.6611 38.05 16.5833C37.9722 16.5056 37.8668 16.4619 37.7569 16.4618H33.7605C33.7065 16.462 33.653 16.4729 33.6032 16.4939C33.5533 16.5149 33.5082 16.5455 33.4703 16.5841C33.4324 16.6227 33.4025 16.6684 33.3824 16.7185C33.3623 16.7687 33.3523 16.8224 33.3531 16.8765V20.8728C33.3524 20.9264 33.3626 20.9797 33.3828 21.0294C33.4031 21.0791 33.4331 21.1243 33.471 21.1623C33.509 21.2002 33.5541 21.2302 33.6039 21.2505C33.6536 21.2708 33.7068 21.2809 33.7605 21.2803ZM35.7623 16.9122C36.2784 16.9189 36.771 17.1286 37.1336 17.4959C37.4962 17.8632 37.6995 18.3585 37.6995 18.8746C37.6994 19.3907 37.4961 19.8861 37.1336 20.2534C36.771 20.6207 36.2783 20.8304 35.7622 20.837C35.2462 20.8303 34.7535 20.6206 34.3909 20.2533C34.0284 19.886 33.8251 19.3907 33.8251 18.8746C33.8251 18.3585 34.0284 17.8631 34.391 17.4958C34.7536 17.1285 35.2462 16.9189 35.7623 16.9122Z" fill="#A216FF"/>
<path d="M35.762 19.4065C35.9009 19.4029 36.0328 19.3452 36.1297 19.2457C36.2266 19.1462 36.2809 19.0128 36.2809 18.8739C36.2809 18.735 36.2266 18.6016 36.1297 18.5021C36.0328 18.4026 35.9008 18.3449 35.762 18.3413C35.6232 18.3449 35.4912 18.4027 35.3943 18.5021C35.2974 18.6016 35.2432 18.735 35.2432 18.8739C35.2432 19.0128 35.2974 19.1462 35.3943 19.2457C35.4913 19.3452 35.6232 19.4029 35.762 19.4065Z" fill="#A216FF"/>
</svg>
